<svg id="Layer_1" data-name="Layer 1" xmlns="http://www.w3.org/2000/svg" viewBox="0 0 121.88 28.87"><defs><style>.cls-1{fill:#ff4c60;}.cls-2{fill:#fff;}</style></defs><path id="_." data-name="." class="cls-1" d="M121,28.5a.86.86,0,0,0,.65-.27.93.93,0,0,0,.25-.63h0V22.85a1,1,0,0,0-.25-.67.86.86,0,0,0-.65-.27h-4.75a.92.92,0,0,0-.94.94h0V27.6a.86.86,0,0,0,.27.65.93.93,0,0,0,.67.25H121Z"/><path class="cls-2" d="M8.55,1.48l6,18.8,6-18.8h8.57v27H22.64V22.19l.63-12.91L16.74,28.5H12.43L5.88,9.26l.63,12.93V28.5H0v-27Z"/><path class="cls-2" d="M42.73,28.87a10.36,10.36,0,0,1-7.48-2.75,9.54,9.54,0,0,1-2.85-7.18v-.51A12.33,12.33,0,0,1,33.54,13a8.36,8.36,0,0,1,3.33-3.65,10,10,0,0,1,5.19-1.29,8.69,8.69,0,0,1,6.68,2.63c1.64,1.75,2.45,4.19,2.45,7.32v2.43H38.76a4.44,4.44,0,0,0,1.47,2.65,4.32,4.32,0,0,0,2.93,1A5.65,5.65,0,0,0,47.8,22l2.85,3.38a8,8,0,0,1-3.31,2.57A11.29,11.29,0,0,1,42.73,28.87Zm-.7-16q-2.74,0-3.27,3.63h6.31V16a3.13,3.13,0,0,0-.76-2.33A3,3,0,0,0,42,12.88Z"/><path class="cls-2" d="M60.3,28.5H54V0H60.3Z"/><path class="cls-2" d="M72.16,21.06,75.33,8.42h6.59L75.37,28.5H69L62.44,8.42H69Z"/><path class="cls-2" d="M83.74,3.25a2.8,2.8,0,0,1,1-2.19,4.08,4.08,0,0,1,5,0,2.81,2.81,0,0,1,1,2.19,2.81,2.81,0,0,1-1,2.19,4.12,4.12,0,0,1-5,0A2.8,2.8,0,0,1,83.74,3.25ZM90.38,28.5H84.11V8.42h6.27Z"/><path class="cls-2" d="M100,8.42l.21,2.36a6.79,6.79,0,0,1,5.73-2.73,5.75,5.75,0,0,1,4.69,1.88,9,9,0,0,1,1.6,5.64V28.5h-6.27V15.83a3.44,3.44,0,0,0-.61-2.24,2.86,2.86,0,0,0-2.23-.71,3,3,0,0,0-2.73,1.44V28.5H94.11V8.42Z"/></svg>