<svg id="d208afe9-d246-44b1-9723-4e792280c828" xmlns="http://www.w3.org/2000/svg" xmlns:xlink="http://www.w3.org/1999/xlink" viewBox="0 0 904 754.77"><defs><style>.cls-1{fill:url(#linear-gradient);}.cls-2,.cls-21{fill:#fff;}.cls-3{fill:#f9ab4c;}.cls-4{opacity:0.7;}.cls-5{opacity:0.6;}.cls-6{opacity:0.5;}.cls-7{opacity:0.4;}.cls-8{opacity:0.3;}.cls-9{fill:#f9ab4c;}.cls-10{fill:url(#linear-gradient-2);}.cls-11{fill:url(#linear-gradient-3);}.cls-12{fill:url(#linear-gradient-4);}.cls-13,.cls-14,.cls-15,.cls-16{fill:none;stroke:#b44cf9;stroke-linecap:round;stroke-linejoin:round;stroke-width:4px;}.cls-14{stroke-dasharray:12.52 33.38;}.cls-15{stroke-dasharray:11.93 31.8;}.cls-16{stroke-dasharray:11.55 30.79;}.cls-17{fill:#e0e0e0;}.cls-18{fill:url(#linear-gradient-5);}.cls-19{fill:#f5f5f5;}.cls-20{fill:url(#linear-gradient-6);}.cls-21{opacity:0.2;isolation:isolate;}</style><linearGradient id="linear-gradient" x1="205.5" y1="297.28" x2="205.5" y2="756" gradientTransform="matrix(1, 0, 0, -1, 0, 756)" gradientUnits="userSpaceOnUse"><stop offset="0" stop-color="gray" stop-opacity="0.25"/><stop offset="0.54" stop-color="gray" stop-opacity="0.12"/><stop offset="1" stop-color="gray" stop-opacity="0.1"/></linearGradient><linearGradient id="linear-gradient-2" x1="347.94" y1="635.86" x2="347.94" y2="715.98" xlink:href="#linear-gradient"/><linearGradient id="linear-gradient-3" x1="347.94" y1="486.86" x2="347.94" y2="566.98" xlink:href="#linear-gradient"/><linearGradient id="linear-gradient-4" x1="347.94" y1="338.86" x2="347.94" y2="418.98" xlink:href="#linear-gradient"/><linearGradient id="linear-gradient-5" x1="660.92" y1="1.23" x2="660.92" y2="18.23" xlink:href="#linear-gradient"/><linearGradient id="linear-gradient-6" x1="810" y1="24" x2="810" y2="339" gradientTransform="matrix(1, 0, 0, -1, -148, 683.38)" xlink:href="#linear-gradient"/></defs><rect class="cls-1" width="411" height="458.72"/><rect class="cls-2" x="6.79" y="306.27" width="397.41" height="142.46"/><rect class="cls-3" x="39.41" y="340.06" width="15.4" height="73"/><g class="cls-4"><rect class="cls-3" x="69.81" y="340.06" width="15.4" height="73"/></g><g class="cls-5"><rect class="cls-3" x="100.22" y="340.06" width="15.4" height="73"/></g><g class="cls-6"><rect class="cls-3" x="130.62" y="340.06" width="15.4" height="73"/></g><g class="cls-6"><rect class="cls-3" x="161.02" y="340.06" width="15.4" height="73"/></g><g class="cls-7"><rect class="cls-3" x="191.42" y="340.06" width="15.4" height="73"/></g><g class="cls-8"><rect class="cls-3" x="221.83" y="340.06" width="15.4" height="73"/></g><circle class="cls-9" cx="347.94" cy="376.09" r="37.16"/><rect class="cls-2" x="6.79" y="158.26" width="397.41" height="142.46"/><rect class="cls-3" x="39.41" y="192.05" width="15.4" height="73"/><g class="cls-4"><rect class="cls-3" x="69.81" y="192.05" width="15.4" height="73"/></g><g class="cls-5"><rect class="cls-3" x="100.22" y="192.05" width="15.4" height="73"/></g><g class="cls-6"><rect class="cls-3" x="130.62" y="192.05" width="15.4" height="73"/></g><g class="cls-6"><rect class="cls-3" x="161.02" y="192.05" width="15.4" height="73"/></g><g class="cls-7"><rect class="cls-3" x="191.42" y="192.05" width="15.4" height="73"/></g><g class="cls-8"><rect class="cls-3" x="221.83" y="192.05" width="15.4" height="73"/></g><circle class="cls-9" cx="347.94" cy="228.09" r="37.16"/><rect class="cls-2" x="6.79" y="10.25" width="397.41" height="142.46"/><rect class="cls-3" x="39.41" y="44.05" width="15.4" height="73"/><g class="cls-4"><rect class="cls-3" x="69.81" y="44.05" width="15.4" height="73"/></g><g class="cls-5"><rect class="cls-3" x="100.22" y="44.05" width="15.4" height="73"/></g><g class="cls-6"><rect class="cls-3" x="130.62" y="44.05" width="15.4" height="73"/></g><g class="cls-6"><rect class="cls-3" x="161.02" y="44.05" width="15.4" height="73"/></g><g class="cls-7"><rect class="cls-3" x="191.42" y="44.05" width="15.4" height="73"/></g><g class="cls-8"><rect class="cls-3" x="221.83" y="44.05" width="15.4" height="73"/></g><circle class="cls-10" cx="347.94" cy="80.08" r="40.06"/><circle class="cls-11" cx="347.94" cy="229.08" r="40.06"/><circle class="cls-12" cx="347.94" cy="377.08" r="40.06"/><circle class="cls-9" cx="347.94" cy="80.08" r="37.16"/><g class="cls-4"><line class="cls-13" x1="461" y1="158.67" x2="467" y2="158.67"/><line class="cls-14" x1="500.38" y1="158.67" x2="667.31" y2="158.67"/><polyline class="cls-13" points="684 158.67 690 158.67 690 164.67"/><line class="cls-15" x1="690" y1="196.48" x2="690" y2="311.77"/><line class="cls-13" x1="690" y1="327.67" x2="690" y2="333.67"/></g><g class="cls-4"><line class="cls-13" x1="367.58" y1="611.67" x2="361.58" y2="611.64"/><line class="cls-14" x1="328.2" y1="611.48" x2="161.28" y2="610.68"/><polyline class="cls-13" points="144.58 610.61 138.58 610.58 138.62 604.58"/><line class="cls-16" x1="138.82" y1="573.79" x2="139.28" y2="504.52"/><line class="cls-13" x1="139.38" y1="489.12" x2="139.42" y2="483.12"/></g><path class="cls-17" d="M721.21,630.46s11.92,80.48,82.27,107.31h-285c70.35-26.83,82.27-107.31,82.27-107.31Z"/><rect class="cls-18" x="517.09" y="737.77" width="287.65" height="17"/><rect class="cls-19" x="518.52" y="737.77" width="284.96" height="13.12"/><path class="cls-20" d="M893.25,344.38H430.75A10.75,10.75,0,0,0,420,355.13h0V646.52a12.86,12.86,0,0,0,12.86,12.86H891.14A12.86,12.86,0,0,0,904,646.52V355.13a10.75,10.75,0,0,0-10.75-10.75Z"/><path class="cls-2" d="M436.57,348.78H885.43a10.75,10.75,0,0,1,10.75,10.75h0V609H425.82V359.54a10.75,10.75,0,0,1,10.74-10.76Z"/><path class="cls-19" d="M883.32,651.92H438.68a12.86,12.86,0,0,1-12.86-12.86V609H896.18v30.06A12.86,12.86,0,0,1,883.32,651.92Z"/><rect class="cls-9" x="449.07" y="369.86" width="425.65" height="210.06"/><polygon class="cls-21" points="465.91 383.8 874.99 383.8 874.99 369.79 449.34 369.79 449.34 579.85 465.91 579.85 465.91 383.8"/></svg>
