<svg id="a9d5c6ed-9ea4-42a3-ab78-5bac3f9dde90" xmlns="http://www.w3.org/2000/svg" viewBox="0 0 811.8 653.57"><defs><style>.cls-1{fill:#ff6584;}.cls-2{fill:#3f3d56;}.cls-3{fill:#cbf97b;}.cls-4{fill:#2f2e41;}.cls-5{fill:#fff;}.cls-6{fill:none;stroke:#3f3d56;stroke-miterlimit:10;stroke-width:2px;}</style></defs><circle class="cls-1" cx="442.8" cy="68" r="68"/><rect class="cls-1" x="354.8" y="260.14" width="36" height="36"/><ellipse class="cls-2" cx="170" cy="630" rx="170" ry="23.13"/><rect class="cls-3" x="217.8" y="92" width="230" height="117"/><circle class="cls-4" cx="160.8" cy="517" r="79"/><rect class="cls-4" x="124.8" y="579" width="24" height="43"/><rect class="cls-4" x="172.8" y="579" width="24" height="43"/><ellipse class="cls-4" cx="144.8" cy="622.5" rx="20" ry="7.5"/><ellipse class="cls-4" cx="192.8" cy="621.5" rx="20" ry="7.5"/><circle class="cls-5" cx="162.8" cy="497" r="27"/><circle class="cls-2" cx="162.8" cy="497" r="9"/><path class="cls-3" d="M84.17,443.53c-6.38-28.57,14-57.43,45.55-64.47s62.26,10.41,68.64,39-14.52,39.1-46.05,46.14S90.55,472.1,84.17,443.53Z"/><circle class="cls-4" cx="133.8" cy="290" r="79"/><rect class="cls-4" x="97.8" y="352" width="24" height="43"/><rect class="cls-4" x="145.8" y="352" width="24" height="43"/><ellipse class="cls-4" cx="117.8" cy="395.5" rx="20" ry="7.5"/><ellipse class="cls-4" cx="165.8" cy="394.5" rx="20" ry="7.5"/><circle class="cls-5" cx="135.8" cy="270" r="27"/><circle class="cls-2" cx="135.8" cy="270" r="9"/><path class="cls-3" d="M57.17,216.53c-6.38-28.57,14-57.43,45.55-64.47s62.26,10.41,68.64,39-14.52,39.1-46.05,46.14S63.55,245.1,57.17,216.53Z"/><ellipse class="cls-4" cx="206.82" cy="230.34" rx="39.5" ry="12.4" transform="translate(-82.18 341.3) rotate(-69.08)"/><ellipse class="cls-4" cx="44.82" cy="253.34" rx="12.4" ry="39.5" transform="translate(-203.29 185.28) rotate(-64.63)"/><path class="cls-5" d="M95,318.5c0,7.73,19.91,23,42,23s42.8-21.77,42.8-29.5-20.71,1.5-42.8,1.5S95,310.77,95,318.5Z"/><rect class="cls-6" x="239.8" y="75" width="230" height="117"/><rect class="cls-6" x="366.8" y="251.14" width="36" height="36"/><ellipse class="cls-2" cx="641.8" cy="630.44" rx="170" ry="23.13"/><circle class="cls-4" cx="643.8" cy="511.94" r="79"/><rect class="cls-4" x="655.8" y="573.94" width="24" height="43"/><rect class="cls-4" x="607.8" y="573.94" width="24" height="43"/><ellipse class="cls-4" cx="614.8" cy="621.44" rx="20" ry="7.5" transform="translate(-228.35 390.66) rotate(-30)"/><ellipse class="cls-4" cx="661.8" cy="621.44" rx="20" ry="7.5" transform="translate(-222.06 414.16) rotate(-30)"/><circle class="cls-5" cx="641.8" cy="491.94" r="27"/><circle class="cls-2" cx="632.61" cy="480.44" r="9"/><path class="cls-3" d="M720.44,438.47c6.38-28.56-14-57.43-45.55-64.47s-62.26,10.41-68.64,39,14.52,39.1,46,46.14S714.06,467,720.44,438.47Z"/><ellipse class="cls-4" cx="574.59" cy="484.78" rx="12.4" ry="39.5" transform="translate(-97.18 822.27) rotate(-66.83)"/><ellipse class="cls-4" cx="722.59" cy="537.78" rx="12.4" ry="39.5" transform="translate(-56.14 990.48) rotate(-66.83)"/><rect class="cls-1" x="510.61" y="437.44" width="36" height="36"/><rect class="cls-6" x="472.61" y="373.44" width="36" height="36"/><path class="cls-5" d="M659.61,546.44a18,18,0,0,1-36,0c0-9.94,8.06-12,18-12S659.61,536.5,659.61,546.44Z"/></svg>
