<svg id="b8c64dc2-e86a-49bc-92bf-164106d9e7fb" xmlns="http://www.w3.org/2000/svg" viewBox="0 0 611.72 391.95"><defs><style>.cls-1{fill:#e6e6e6;}.cls-2{fill:#fff;}.cls-3{fill:#a86ce5;}.cls-4{fill:#ccc;}</style></defs><rect class="cls-1" x="0.26" y="0.35" width="611.46" height="391.61"/><rect class="cls-2" x="17.75" y="49.46" width="576.49" height="319.32"/><rect class="cls-3" width="611.46" height="25.98"/><circle class="cls-2" cx="19.3" cy="13.28" r="4.81"/><circle class="cls-2" cx="37.58" cy="13.28" r="4.81"/><circle class="cls-2" cx="55.85" cy="13.28" r="4.81"/><path class="cls-4" d="M431.12,79.37H243.43a1.66,1.66,0,0,1,0-3.3H431.12a1.66,1.66,0,0,1,0,3.3Z"/><path class="cls-4" d="M301.07,97.54H181.74a1.66,1.66,0,0,1,0-3.3H301.07a1.66,1.66,0,0,1,0,3.3Z"/><path class="cls-4" d="M431.12,97.87H311.78a1.66,1.66,0,0,1,0-3.3H431.12a1.66,1.66,0,0,1,0,3.3Z"/><path class="cls-4" d="M301.36,115.71H182a1.67,1.67,0,0,1,0-3.31H301.36a1.67,1.67,0,0,1,0,3.31Z"/><path class="cls-4" d="M301.65,133.87H182.32a1.66,1.66,0,0,1-1.44-1.86,1.68,1.68,0,0,1,1.44-1.44H301.65a1.66,1.66,0,0,1,0,3.3Z"/><path class="cls-4" d="M355.81,115.71H321.63a1.67,1.67,0,0,1,0-3.31h34.18a1.67,1.67,0,0,1,0,3.31Z"/><path class="cls-4" d="M355.81,133.54H321.63a1.66,1.66,0,0,1-1.43-1.86,1.68,1.68,0,0,1,1.43-1.44h34.18a1.67,1.67,0,0,1,1.43,1.87,1.64,1.64,0,0,1-1.43,1.43Z"/><path class="cls-4" d="M413.16,133.54H379a1.66,1.66,0,0,1,0-3.3h34.18a1.67,1.67,0,0,1,1.43,1.87A1.65,1.65,0,0,1,413.16,133.54Z"/><path class="cls-4" d="M215,79.37H180.87a1.66,1.66,0,0,1,0-3.3H215a1.66,1.66,0,0,1,0,3.3Z"/><path class="cls-4" d="M300.63,287.68H181.3a1.67,1.67,0,0,1-1.43-1.87,1.65,1.65,0,0,1,1.43-1.43H300.63a1.66,1.66,0,0,1,1.44,1.86,1.68,1.68,0,0,1-1.44,1.44Z"/><path class="cls-4" d="M300.05,324H180.72a1.66,1.66,0,0,1,0-3.3H300.05a1.66,1.66,0,0,1,0,3.3Z"/><path class="cls-4" d="M300.34,342.18H181a1.66,1.66,0,0,1,0-3.3H300.34a1.66,1.66,0,0,1,0,3.3Z"/><path class="cls-4" d="M351.32,324.34H317.14a1.66,1.66,0,0,1,0-3.3h34.18a1.67,1.67,0,0,1,1.43,1.87,1.64,1.64,0,0,1-1.43,1.43Z"/><path class="cls-4" d="M351.32,342.18H317.14a1.66,1.66,0,0,1,0-3.3h34.18a1.66,1.66,0,0,1,0,3.3Z"/><path class="cls-4" d="M408.67,324.34H374.49a1.66,1.66,0,0,1,0-3.3h34.18a1.67,1.67,0,0,1,1.43,1.87A1.65,1.65,0,0,1,408.67,324.34Z"/><path class="cls-4" d="M431.26,305.85H243.57a1.67,1.67,0,0,1,0-3.31H431.26a1.67,1.67,0,0,1,0,3.31Z"/><path class="cls-4" d="M215.19,305.85H181a1.67,1.67,0,0,1,0-3.31h34.18a1.67,1.67,0,0,1,0,3.31Z"/><polygon class="cls-1" points="271.81 163.22 225.47 208.99 271.81 254.75 282.24 244.32 247.19 209.27 282.53 173.94 271.81 163.22"/><polygon class="cls-1" points="340.17 163.22 386.51 208.99 340.17 254.75 329.74 244.32 364.79 209.27 329.45 173.94 340.17 163.22"/><polygon class="cls-3" points="271.81 163.22 225.47 208.99 271.81 254.75 282.24 244.32 247.19 209.27 282.53 173.94 271.81 163.22"/><polygon class="cls-3" points="340.17 163.22 386.51 208.99 340.17 254.75 329.74 244.32 364.79 209.27 329.45 173.94 340.17 163.22"/></svg>
